<svg width="119" height="48" viewBox="0 0 119 48" fill="none" xmlns="http://www.w3.org/2000/svg">
<path d="M69.9176 24.6562H66.1847C66.1165 24.1733 65.9773 23.7443 65.767 23.3693C65.5568 22.9886 65.2869 22.6648 64.9574 22.3977C64.6278 22.1307 64.2472 21.9261 63.8153 21.7841C63.3892 21.642 62.9261 21.571 62.4261 21.571C61.5227 21.571 60.7358 21.7955 60.0653 22.2443C59.3949 22.6875 58.875 23.3352 58.5057 24.1875C58.1364 25.0341 57.9517 26.0625 57.9517 27.2727C57.9517 28.517 58.1364 29.5625 58.5057 30.4091C58.8807 31.2557 59.4034 31.8949 60.0739 32.3267C60.7443 32.7585 61.5199 32.9744 62.4006 32.9744C62.8949 32.9744 63.3523 32.9091 63.7727 32.7784C64.1989 32.6477 64.5767 32.4574 64.9062 32.2074C65.2358 31.9517 65.5085 31.642 65.7244 31.2784C65.946 30.9148 66.0994 30.5 66.1847 30.0341L69.9176 30.0511C69.821 30.8523 69.5795 31.625 69.1932 32.3693C68.8125 33.108 68.2983 33.7699 67.6506 34.3551C67.0085 34.9347 66.2415 35.3949 65.3494 35.7358C64.4631 36.071 63.4602 36.2386 62.3409 36.2386C60.7841 36.2386 59.392 35.8864 58.1648 35.1818C56.9432 34.4773 55.9773 33.4574 55.267 32.1222C54.5625 30.7869 54.2102 29.1705 54.2102 27.2727C54.2102 25.3693 54.5682 23.75 55.2841 22.4148C56 21.0795 56.9716 20.0625 58.1989 19.3636C59.4261 18.6591 60.8068 18.3068 62.3409 18.3068C63.3523 18.3068 64.2898 18.4489 65.1534 18.733C66.0227 19.017 66.7926 19.4318 67.4631 19.9773C68.1335 20.517 68.679 21.179 69.0994 21.9631C69.5256 22.7472 69.7983 23.6449 69.9176 24.6562ZM71.8991 21.5881V18.5455H86.2344V21.5881H80.8906V36H77.2429V21.5881H71.8991ZM89.4709 36H85.5163L91.5419 18.5455H96.2976L102.315 36H98.3601L93.9879 22.5341H93.8516L89.4709 36ZM89.2237 29.1392H98.5646V32.0199H89.2237V29.1392ZM104.415 36V18.5455H111.404C112.688 18.5455 113.759 18.7358 114.617 19.1165C115.475 19.4972 116.12 20.0256 116.552 20.7017C116.984 21.3722 117.2 22.1449 117.2 23.0199C117.2 23.7017 117.063 24.3011 116.79 24.8182C116.518 25.3295 116.143 25.75 115.665 26.0795C115.194 26.4034 114.654 26.6335 114.046 26.7699V26.9403C114.711 26.9687 115.333 27.1562 115.913 27.5028C116.498 27.8494 116.972 28.3352 117.336 28.9602C117.7 29.5795 117.881 30.3182 117.881 31.1761C117.881 32.1023 117.651 32.929 117.191 33.6562C116.737 34.3778 116.063 34.9489 115.171 35.3693C114.279 35.7898 113.18 36 111.873 36H104.415ZM108.106 32.983H111.114C112.143 32.983 112.893 32.7869 113.364 32.3949C113.836 31.9972 114.072 31.4687 114.072 30.8097C114.072 30.3267 113.955 29.9006 113.722 29.5312C113.489 29.1619 113.157 28.8722 112.725 28.6619C112.299 28.4517 111.79 28.3466 111.2 28.3466H108.106V32.983ZM108.106 25.8494H110.842C111.347 25.8494 111.796 25.7614 112.188 25.5852C112.586 25.4034 112.898 25.1477 113.126 24.8182C113.359 24.4886 113.475 24.0938 113.475 23.6335C113.475 23.0028 113.251 22.4943 112.802 22.108C112.359 21.7216 111.728 21.5284 110.91 21.5284H108.106V25.8494Z" fill="#1B6673"/>
<path d="M10 41.5H38C43.5229 41.5 48 37.0229 48 31.5V19V17.75C48 12.2272 43.5229 7.75001 38 7.75001H18.5L18.5 0H10C4.47716 0 4.90636e-06 4.47716 1.09586e-05 10L3.45197e-05 31.5C4.0572e-05 37.0229 4.47719 41.5 10 41.5Z" fill="#0F383F"/>
<path d="M10 44.5H38C43.5229 44.5 48 40.0229 48 34.5V22V20.75C48 15.2272 43.5229 10.75 38 10.75H18.5L18.5 3H10C4.47716 3 4.90636e-06 7.47716 1.09586e-05 13L3.45197e-05 34.5C4.0572e-05 40.0229 4.47719 44.5 10 44.5Z" fill="#16525C"/>
<path d="M10 47.5H38C43.5229 47.5 48 43.0229 48 37.5V25V23.75C48 18.2272 43.5229 13.75 38 13.75H18.5L18.5 6H10C4.47716 6 4.90636e-06 10.4772 1.09586e-05 16L3.45197e-05 37.5C4.0572e-05 43.0229 4.47719 47.5 10 47.5Z" fill="#1B6673"/>
<path d="M17.2784 26.4375H14.7898C14.7443 26.1155 14.6515 25.8295 14.5114 25.5795C14.3712 25.3258 14.1913 25.1098 13.9716 24.9318C13.7519 24.7538 13.4981 24.6174 13.2102 24.5227C12.9261 24.428 12.6174 24.3807 12.2841 24.3807C11.6818 24.3807 11.1572 24.5303 10.7102 24.8295C10.2633 25.125 9.91667 25.5568 9.67045 26.125C9.42424 26.6894 9.30114 27.375 9.30114 28.1818C9.30114 29.0114 9.42424 29.7083 9.67045 30.2727C9.92045 30.8371 10.2689 31.2633 10.7159 31.5511C11.1629 31.839 11.6799 31.983 12.267 31.983C12.5966 31.983 12.9015 31.9394 13.1818 31.8523C13.4659 31.7652 13.7178 31.6383 13.9375 31.4716C14.1572 31.3011 14.339 31.0947 14.483 30.8523C14.6307 30.6098 14.733 30.3333 14.7898 30.0227L17.2784 30.0341C17.214 30.5682 17.053 31.0833 16.7955 31.5795C16.5417 32.072 16.1989 32.5133 15.767 32.9034C15.339 33.2898 14.8277 33.5966 14.233 33.8239C13.642 34.0473 12.9735 34.1591 12.2273 34.1591C11.1894 34.1591 10.2614 33.9242 9.44318 33.4545C8.62879 32.9848 7.98485 32.3049 7.51136 31.4148C7.04167 30.5246 6.80682 29.447 6.80682 28.1818C6.80682 26.9129 7.04545 25.8333 7.52273 24.9432C8 24.053 8.64773 23.375 9.46591 22.9091C10.2841 22.4394 11.2045 22.2045 12.2273 22.2045C12.9015 22.2045 13.5265 22.2992 14.1023 22.4886C14.6818 22.678 15.1951 22.9545 15.642 23.3182C16.089 23.678 16.4527 24.1193 16.733 24.642C17.017 25.1648 17.1989 25.7633 17.2784 26.4375ZM27.3324 27.3239V29.2955H22.3153V27.3239H27.3324ZM18.8494 30.1875H21.2983C21.34 30.8542 21.5483 31.3561 21.9233 31.6932C22.2983 32.0303 22.8532 32.1989 23.5881 32.1989C24.1866 32.1989 24.6619 32.0587 25.0142 31.7784C25.3665 31.4981 25.6203 31.0947 25.7756 30.5682C25.9309 30.0379 26.0085 29.4034 26.0085 28.6648V27.7216C26.0085 26.9602 25.9195 26.3182 25.7415 25.7955C25.5672 25.2689 25.3002 24.8712 24.9403 24.6023C24.5843 24.3333 24.1278 24.1989 23.571 24.1989C23.0218 24.1989 22.5862 24.2822 22.2642 24.4489C21.9422 24.6155 21.7074 24.8542 21.5597 25.1648C21.4119 25.4716 21.321 25.8428 21.2869 26.2784H18.8381C18.9138 25.5133 19.1335 24.8239 19.4972 24.2102C19.8646 23.5928 20.3854 23.1042 21.0597 22.7443C21.7377 22.3845 22.5748 22.2045 23.571 22.2045C24.5597 22.2045 25.4176 22.4299 26.1449 22.8807C26.8722 23.3314 27.4347 23.9697 27.8324 24.7955C28.2301 25.6212 28.429 26.5985 28.429 27.7273V28.6705C28.429 29.7992 28.2339 30.7746 27.8438 31.5966C27.4574 32.4148 26.9025 33.0473 26.179 33.4943C25.4555 33.9375 24.5919 34.1591 23.5881 34.1591C22.6297 34.1591 21.8078 33.9924 21.1222 33.6591C20.4366 33.322 19.9006 32.8561 19.5142 32.2614C19.1278 31.6629 18.9063 30.9716 18.8494 30.1875ZM29.6151 36.8068V32.0398H30.4048C30.6738 31.8466 30.92 31.5739 31.1435 31.2216C31.367 30.8655 31.5582 30.375 31.7173 29.75C31.8764 29.1212 31.9901 28.2992 32.0582 27.2841L32.3878 22.3636H40.0866V32.0398H41.3594V36.7955H38.9957V34H31.9787V36.8068H29.6151ZM33.2457 32.0398H37.723V24.392H34.6037L34.4219 27.2841C34.3726 28.053 34.2912 28.7348 34.1776 29.3295C34.0677 29.9242 33.9332 30.4451 33.7741 30.892C33.6188 31.3352 33.4427 31.7178 33.2457 32.0398Z" fill="#F5F5F5"/>
</svg>
